<mxfile host="app.diagrams.net" modified="2023-04-06T04:31:16.844Z" agent="5.0 (Windows NT 10.0; WOW64) AppleWebKit/537.36 (KHTML, like Gecko) Chrome/86.0.4240.198 Safari/537.36" etag="bDSJ6pgR04mXxCgmGMB6" version="17.4.3" type="github">
  <diagram id="wBzqIfNyAyHXvbYqx4xG" name="第 1 页">
    <mxGraphModel dx="1002" dy="677" grid="1" gridSize="10" guides="1" tooltips="1" connect="1" arrows="1" fold="1" page="1" pageScale="1" pageWidth="827" pageHeight="1169" math="0" shadow="0">
      <root>
        <mxCell id="0" />
        <mxCell id="1" parent="0" />
        <mxCell id="YO0htNIuJSO2rmtyerx_-3" value="" style="edgeStyle=orthogonalEdgeStyle;rounded=0;orthogonalLoop=1;jettySize=auto;html=1;" edge="1" parent="1" source="YO0htNIuJSO2rmtyerx_-1" target="YO0htNIuJSO2rmtyerx_-2">
          <mxGeometry relative="1" as="geometry" />
        </mxCell>
        <mxCell id="YO0htNIuJSO2rmtyerx_-1" value="20%核心技能" style="rounded=1;whiteSpace=wrap;html=1;" vertex="1" parent="1">
          <mxGeometry x="160" y="240" width="120" height="60" as="geometry" />
        </mxCell>
        <mxCell id="YO0htNIuJSO2rmtyerx_-5" value="" style="edgeStyle=orthogonalEdgeStyle;rounded=0;orthogonalLoop=1;jettySize=auto;html=1;" edge="1" parent="1" source="YO0htNIuJSO2rmtyerx_-2" target="YO0htNIuJSO2rmtyerx_-4">
          <mxGeometry relative="1" as="geometry" />
        </mxCell>
        <mxCell id="YO0htNIuJSO2rmtyerx_-11" style="edgeStyle=orthogonalEdgeStyle;rounded=0;orthogonalLoop=1;jettySize=auto;html=1;entryX=1;entryY=0.5;entryDx=0;entryDy=0;" edge="1" parent="1" source="YO0htNIuJSO2rmtyerx_-2" target="YO0htNIuJSO2rmtyerx_-8">
          <mxGeometry relative="1" as="geometry">
            <Array as="points">
              <mxPoint x="300" y="410" />
              <mxPoint x="300" y="690" />
            </Array>
          </mxGeometry>
        </mxCell>
        <mxCell id="YO0htNIuJSO2rmtyerx_-2" value="设计训练项和反馈指标" style="whiteSpace=wrap;html=1;rounded=1;" vertex="1" parent="1">
          <mxGeometry x="160" y="380" width="120" height="60" as="geometry" />
        </mxCell>
        <mxCell id="YO0htNIuJSO2rmtyerx_-9" value="" style="edgeStyle=orthogonalEdgeStyle;rounded=0;orthogonalLoop=1;jettySize=auto;html=1;" edge="1" parent="1" source="YO0htNIuJSO2rmtyerx_-4" target="YO0htNIuJSO2rmtyerx_-8">
          <mxGeometry relative="1" as="geometry" />
        </mxCell>
        <mxCell id="YO0htNIuJSO2rmtyerx_-4" value="训练" style="whiteSpace=wrap;html=1;rounded=1;" vertex="1" parent="1">
          <mxGeometry x="160" y="520" width="120" height="60" as="geometry" />
        </mxCell>
        <mxCell id="YO0htNIuJSO2rmtyerx_-10" style="edgeStyle=orthogonalEdgeStyle;rounded=0;orthogonalLoop=1;jettySize=auto;html=1;entryX=0;entryY=0.5;entryDx=0;entryDy=0;" edge="1" parent="1" source="YO0htNIuJSO2rmtyerx_-8" target="YO0htNIuJSO2rmtyerx_-2">
          <mxGeometry relative="1" as="geometry">
            <Array as="points">
              <mxPoint x="140" y="690" />
              <mxPoint x="140" y="410" />
            </Array>
          </mxGeometry>
        </mxCell>
        <mxCell id="YO0htNIuJSO2rmtyerx_-8" value="反馈" style="whiteSpace=wrap;html=1;rounded=1;" vertex="1" parent="1">
          <mxGeometry x="160" y="660" width="120" height="60" as="geometry" />
        </mxCell>
      </root>
    </mxGraphModel>
  </diagram>
</mxfile>
